{
    "asset" : {
        "generator" : "Khronos glTF Blender I/O v1.7.33",
        "version" : "2.0"
    },
    "scene" : 0,
    "scenes" : [
        {
            "name" : "Scene",
            "nodes" : [
                0
            ]
        }
    ],
    "nodes" : [
        {
            "mesh" : 0,
            "name" : "needle.001",
            "rotation" : [
                0.10232628881931305,
                0.23553186655044556,
                0.905687153339386,
                0.33732014894485474
            ],
            "scale" : [
                0.3899998962879181,
                0.38999995589256287,
                0.3899999260902405
            ],
            "translation" : [
                -0.3274068832397461,
                0.45915547013282776,
                -0.9147430062294006
            ]
        }
    ],
    "meshes" : [
        {
            "name" : "NurbsPath.001",
            "primitives" : [
                {
                    "attributes" : {
                        "POSITION" : 0,
                        "NORMAL" : 1,
                        "TEXCOORD_0" : 2
                    },
                    "indices" : 3
                }
            ]
        }
    ],
    "accessors" : [
        {
            "bufferView" : 0,
            "componentType" : 5126,
            "count" : 62248,
            "max" : [
                3.1105129718780518,
                5.984329700469971,
                7.754874229431152
            ],
            "min" : [
                -5.052837371826172,
                -4.003708362579346,
                -3.2512130737304688
            ],
            "type" : "VEC3"
        },
        {
            "bufferView" : 1,
            "componentType" : 5126,
            "count" : 62248,
            "type" : "VEC3"
        },
        {
            "bufferView" : 2,
            "componentType" : 5126,
            "count" : 62248,
            "type" : "VEC2"
        },
        {
            "bufferView" : 3,
            "componentType" : 5123,
            "count" : 286140,
            "type" : "SCALAR"
        }
    ],
    "bufferViews" : [
        {
            "buffer" : 0,
            "byteLength" : 746976,
            "byteOffset" : 0
        },
        {
            "buffer" : 0,
            "byteLength" : 746976,
            "byteOffset" : 746976
        },
        {
            "buffer" : 0,
            "byteLength" : 497984,
            "byteOffset" : 1493952
        },
        {
            "buffer" : 0,
            "byteLength" : 572280,
            "byteOffset" : 1991936
        }
    ],
    "buffers" : [
        {
            "byteLength" : 2564216,
            "uri" : "data:application/octet-stream;base64,"
        }
    ]
}
