{
    "asset" : {
        "generator" : "Khronos glTF Blender I/O v1.7.33",
        "version" : "2.0"
    },
    "scene" : 0,
    "scenes" : [
        {
            "name" : "Scene",
            "nodes" : [
                0
            ]
        }
    ],
    "nodes" : [
        {
            "mesh" : 0,
            "name" : "Text",
            "rotation" : [
                0.7071068286895752,
                0,
                0,
                0.7071068286895752
            ],
            "scale" : [
                11.305655479431152,
                11.305655479431152,
                11.305655479431152
            ]
        }
    ],
    "meshes" : [
        {
            "name" : "Text",
            "primitives" : [
                {
                    "attributes" : {
                        "POSITION" : 0,
                        "NORMAL" : 1,
                        "TEXCOORD_0" : 2
                    },
                    "indices" : 3
                }
            ]
        }
    ],
    "accessors" : [
        {
            "bufferView" : 0,
            "componentType" : 5126,
            "count" : 1500,
            "max" : [
                0.1779448539018631,
                0.11999999731779099,
                0.22263993322849274
            ],
            "min" : [
                -0.1779448688030243,
                -0.11999999731779099,
                -0.22263994812965393
            ],
            "type" : "VEC3"
        },
        {
            "bufferView" : 1,
            "componentType" : 5126,
            "count" : 1500,
            "type" : "VEC3"
        },
        {
            "bufferView" : 2,
            "componentType" : 5126,
            "count" : 1500,
            "type" : "VEC2"
        },
        {
            "bufferView" : 3,
            "componentType" : 5123,
            "count" : 2772,
            "type" : "SCALAR"
        }
    ],
    "bufferViews" : [
        {
            "buffer" : 0,
            "byteLength" : 18000,
            "byteOffset" : 0
        },
        {
            "buffer" : 0,
            "byteLength" : 18000,
            "byteOffset" : 18000
        },
        {
            "buffer" : 0,
            "byteLength" : 12000,
            "byteOffset" : 36000
        },
        {
            "buffer" : 0,
            "byteLength" : 5544,
            "byteOffset" : 48000
        }
    ],
    "buffers" : [
        {
            "byteLength" : 53544,
            "uri" : "data:application/octet-stream;base64,"
        }
    ]
}
